<svg width="188" height="26" viewBox="0 0 188 26" fill="none" xmlns="http://www.w3.org/2000/svg">
<rect x="140" width="48" height="26" rx="3" fill="#5382E7"/>
<path d="M157.431 11.4173C157.102 9.25475 155.273 8 152.901 8C150.106 8 148 9.85361 148 13C148 16.1416 150.08 18 152.901 18C155.446 18 157.134 16.5029 157.431 14.6445L155.477 14.635C155.232 15.7757 154.207 16.4173 152.927 16.4173C151.193 16.4173 149.949 15.2338 149.949 13C149.949 10.8042 151.182 9.5827 152.933 9.5827C154.234 9.5827 155.252 10.2529 155.477 11.4173H157.431Z" fill="white"/>
<path d="M159.207 17.8669H161.145V14.3023H163.12L165.221 17.8669H167.384L165.069 14.0076C166.328 13.5466 166.992 12.5675 166.992 11.2462C166.992 9.38783 165.675 8.13308 163.219 8.13308H159.207V17.8669ZM161.145 12.8384V9.60646H162.922C164.369 9.60646 165.017 10.2101 165.017 11.2462C165.017 12.2823 164.369 12.8384 162.932 12.8384H161.145Z" fill="white"/>
<path d="M168.776 8.13308V17.8669H170.637V11.1654H170.736L173.693 17.8384H175.083L178.041 11.1797H178.14V17.8669H180V8.13308H177.628L174.451 15.1863H174.326L171.149 8.13308H168.776Z" fill="white"/>
<path d="M9.14744 3.26603V16.8337C9.13762 18.7055 8.27393 19.6936 6.70357 19.6936C5.22154 19.6936 4.2597 18.8005 4.23025 17.2518H0.000100233C-0.0195292 21.1378 2.84637 22.9905 6.48764 22.9905C10.5608 22.9905 13.3383 20.6057 13.3481 16.8337V3.26603H9.14744Z" fill="#2B3844"/>
<path d="M31.6594 3.26603V15.5511C31.6594 17.7743 30.0498 19.38 27.5764 19.38C25.1129 19.38 23.4935 17.7743 23.4935 15.5511V3.26603H19.2437V15.9026C19.2437 20.1591 22.5611 23 27.5764 23C32.5722 23 35.9092 20.1591 35.9092 15.9026V3.26603H31.6594Z" fill="#2B3844"/>
<path d="M52.6917 8.86223H56.7649C56.706 5.3943 53.7616 3 49.286 3C44.8792 3 41.6502 5.35629 41.6698 8.89074C41.66 11.7601 43.7505 13.4038 47.1464 14.1924L49.3351 14.7245C51.5238 15.2375 52.7408 15.8456 52.7506 17.1568C52.7408 18.5819 51.3471 19.5511 49.1879 19.5511C46.9796 19.5511 45.3896 18.5629 45.2522 16.6152H41.1398C41.2478 20.8242 44.359 23 49.237 23C54.1443 23 57.0299 20.7292 57.0397 17.1663C57.0299 13.9264 54.5075 12.2067 51.0134 11.4466L49.2075 11.0285C47.4605 10.639 45.9981 10.0119 46.0275 8.6152C46.0275 7.36105 47.1759 6.43943 49.2566 6.43943C51.2882 6.43943 52.5347 7.33254 52.6917 8.86223Z" fill="#2B3844"/>
<path d="M61.5146 6.65796H67.6684V22.7245H71.8691V6.65796H78.023V3.26603H61.5146V6.65796Z" fill="#2B3844"/>
<path d="M87.3734 3.26603H83.1236V22.7245H87.3734V3.26603Z" fill="#2B3844"/>
<path d="M110.987 10.0784C110.428 5.58432 106.914 3 102.262 3C96.9519 3 92.8984 6.62945 92.8984 12.9952C92.8984 19.342 96.8832 22.9905 102.262 22.9905C107.414 22.9905 110.526 19.6746 110.987 16.0926L106.688 16.0736C106.286 18.1544 104.598 19.3515 102.33 19.3515C99.278 19.3515 97.2071 17.1568 97.2071 12.9952C97.2071 8.94774 99.2486 6.63896 102.36 6.63896C104.686 6.63896 106.364 7.94062 106.688 10.0784H110.987Z" fill="#2B3844"/>
<path d="M116.416 22.7245H130V19.3325H120.666V14.6865H129.264V11.2945H120.666V6.65796H129.961V3.26603H116.416V22.7245Z" fill="#2B3844"/>
</svg>
